<?xml version="1.0" encoding="UTF-8" standalone="no"?>
<!DOCTYPE svg PUBLIC "-//W3C//DTD SVG 1.1//EN" "http://www.w3.org/Graphics/SVG/1.1/DTD/svg11.dtd">
<svg width="100%" height="100%" viewBox="0 0 517 517" version="1.1" xmlns="http://www.w3.org/2000/svg" xmlns:xlink="http://www.w3.org/1999/xlink" xml:space="preserve" xmlns:serif="http://www.serif.com/" style="fill-rule:evenodd;clip-rule:evenodd;stroke-linejoin:round;stroke-miterlimit:2;">
    <g transform="matrix(1.2408,0,0,1.2408,-59.3196,-68.1517)">
        <g transform="matrix(4.16667,0,0,4.16667,388.083,471.592)">
            <path d="M0,-100L-63.332,-100C-73.457,-100 -81.666,-91.791 -81.666,-81.666L-81.666,-18.334C-81.666,-8.209 -73.457,0 -63.332,0L0,0C10.125,0 18.334,-8.209 18.334,-18.334L18.334,-81.666C18.334,-91.791 10.125,-100 0,-100" style="fill:white;fill-rule:nonzero;"/>
        </g>
        <g transform="matrix(143.653,94.1988,94.1988,-143.653,270.834,225.591)">
            <path d="M0.556,0.42C0.493,0.363 0.413,0.301 0.323,0.242C0.233,0.183 0.144,0.134 0.066,0.099C0.034,0.085 0.018,0.049 0.029,0.016L0.157,-0.376C0.171,-0.418 0.222,-0.436 0.259,-0.411L0.947,0.04C0.985,0.064 0.989,0.118 0.955,0.148L0.647,0.421C0.624,0.442 0.59,0.444 0.565,0.427C0.562,0.425 0.559,0.423 0.556,0.42Z" style="fill:url(#_Linear1);fill-rule:nonzero;"/>
        </g>
        <g transform="matrix(134.233,65.9392,65.9392,-134.233,99.4412,249.221)">
            <path d="M0.683,0.361C0.603,0.304 0.503,0.245 0.392,0.19C0.281,0.136 0.174,0.093 0.08,0.064C0.041,0.053 0.017,0.014 0.025,-0.026L0.078,-0.298C0.088,-0.348 0.143,-0.376 0.19,-0.353L0.946,0.019C0.993,0.041 1.005,0.102 0.971,0.141L0.788,0.349C0.764,0.376 0.726,0.383 0.694,0.368C0.69,0.366 0.687,0.363 0.683,0.361Z" style="fill:url(#_Linear2);fill-rule:nonzero;"/>
        </g>
    </g>
    <defs>
        <linearGradient id="_Linear1" x1="0" y1="0" x2="1" y2="0" gradientUnits="userSpaceOnUse" gradientTransform="matrix(1,0,0,-1,0,0.00794167)"><stop offset="0" style="stop-color:rgb(39,128,205);stop-opacity:1"/><stop offset="1" style="stop-color:rgb(52,140,217);stop-opacity:1"/></linearGradient>
        <linearGradient id="_Linear2" x1="0" y1="0" x2="1" y2="0" gradientUnits="userSpaceOnUse" gradientTransform="matrix(1,0,0,-1,0,0.00730271)"><stop offset="0" style="stop-color:rgb(66,68,77);stop-opacity:1"/><stop offset="1" style="stop-color:rgb(71,74,84);stop-opacity:1"/></linearGradient>
    </defs>
</svg>
