<svg id="visual" viewBox="0 300 960 240" width="960" height="240"
  xmlns="http://www.w3.org/2000/svg"
  xmlns:xlink="http://www.w3.org/1999/xlink" version="1.1">
  <path d="M0 344L137 354L274 344L411 372L549 329L686 336L823 329L960 346L960 541L823 541L686 541L549 541L411 541L274 541L137 541L0 541Z" fill="#464953"></path>
  <path d="M0 363L137 403L274 392L411 431L549 385L686 372L823 365L960 403L960 541L823 541L686 541L549 541L411 541L274 541L137 541L0 541Z" fill="#4b5771"></path>
  <path d="M0 426L137 426L274 433L411 409L549 416L686 417L823 423L960 394L960 541L823 541L686 541L549 541L411 541L274 541L137 541L0 541Z" fill="#4b6590"></path>
  <path d="M0 452L137 483L274 455L411 456L549 439L686 483L823 483L960 478L960 541L823 541L686 541L549 541L411 541L274 541L137 541L0 541Z" fill="#4475b0"></path>
  <path d="M0 482L137 489L274 503L411 514L549 499L686 486L823 481L960 494L960 541L823 541L686 541L549 541L411 541L274 541L137 541L0 541Z" fill="#2d85d2"></path>
</svg>