<svg id="visual" viewBox="0 0 960 240" width="960" height="240"
  xmlns="http://www.w3.org/2000/svg"
  xmlns:xlink="http://www.w3.org/1999/xlink" version="1.1">
  <rect x="0" y="0" width="960" height="540" fill="#FFFFFF"></rect>
  <path d="M0 207L22.8 208C45.7 209 91.3 211 137 212C182.7 213 228.3 213 274 206.8C319.7 200.7 365.3 188.3 411.2 183.7C457 179 503 182 548.8 185C594.7 188 640.3 191 686 194.3C731.7 197.7 777.3 201.3 823 191.8C868.7 182.3 914.3 159.7 937.2 148.3L960 137L960 0L937.2 0C914.3 0 868.7 0 823 0C777.3 0 731.7 0 686 0C640.3 0 594.7 0 548.8 0C503 0 457 0 411.2 0C365.3 0 319.7 0 274 0C228.3 0 182.7 0 137 0C91.3 0 45.7 0 22.8 0L0 0Z" fill="#2d85d2"></path>
  <path d="M0 175L22.8 175.8C45.7 176.7 91.3 178.3 137 171.8C182.7 165.3 228.3 150.7 274 142.2C319.7 133.7 365.3 131.3 411.2 137.3C457 143.3 503 157.7 548.8 159.2C594.7 160.7 640.3 149.3 686 142.3C731.7 135.3 777.3 132.7 823 135C868.7 137.3 914.3 144.7 937.2 148.3L960 152L960 0L937.2 0C914.3 0 868.7 0 823 0C777.3 0 731.7 0 686 0C640.3 0 594.7 0 548.8 0C503 0 457 0 411.2 0C365.3 0 319.7 0 274 0C228.3 0 182.7 0 137 0C91.3 0 45.7 0 22.8 0L0 0Z" fill="#4475b0"></path>
  <path d="M0 130L22.8 123.3C45.7 116.7 91.3 103.3 137 100.5C182.7 97.7 228.3 105.3 274 111.2C319.7 117 365.3 121 411.2 122.5C457 124 503 123 548.8 119.3C594.7 115.7 640.3 109.3 686 107C731.7 104.7 777.3 106.3 823 110.8C868.7 115.3 914.3 122.7 937.2 126.3L960 130L960 0L937.2 0C914.3 0 868.7 0 823 0C777.3 0 731.7 0 686 0C640.3 0 594.7 0 548.8 0C503 0 457 0 411.2 0C365.3 0 319.7 0 274 0C228.3 0 182.7 0 137 0C91.3 0 45.7 0 22.8 0L0 0Z" fill="#4b6590"></path>
  <path d="M0 61L22.8 65.7C45.7 70.3 91.3 79.7 137 86.2C182.7 92.7 228.3 96.3 274 97.8C319.7 99.3 365.3 98.7 411.2 97.2C457 95.7 503 93.3 548.8 93.2C594.7 93 640.3 95 686 91.3C731.7 87.7 777.3 78.3 823 75.7C868.7 73 914.3 77 937.2 79L960 81L960 0L937.2 0C914.3 0 868.7 0 823 0C777.3 0 731.7 0 686 0C640.3 0 594.7 0 548.8 0C503 0 457 0 411.2 0C365.3 0 319.7 0 274 0C228.3 0 182.7 0 137 0C91.3 0 45.7 0 22.8 0L0 0Z" fill="#4b5771"></path>
  <path d="M0 32L22.8 30.5C45.7 29 91.3 26 137 31.5C182.7 37 228.3 51 274 51.8C319.7 52.7 365.3 40.3 411.2 36.8C457 33.3 503 38.7 548.8 42.2C594.7 45.7 640.3 47.3 686 49.8C731.7 52.3 777.3 55.7 823 52C868.7 48.3 914.3 37.7 937.2 32.3L960 27L960 0L937.2 0C914.3 0 868.7 0 823 0C777.3 0 731.7 0 686 0C640.3 0 594.7 0 548.8 0C503 0 457 0 411.2 0C365.3 0 319.7 0 274 0C228.3 0 182.7 0 137 0C91.3 0 45.7 0 22.8 0L0 0Z" fill="#464953"></path>
</svg>