<svg id="visual" viewBox="0 0 900 200" width="900" height="200" xmlns="http://www.w3.org/2000/svg" xmlns:xlink="http://www.w3.org/1999/xlink" version="1.1"><rect x="0" y="0" width="900" height="200" fill="#FFFFFF"></rect><path d="M0 139L129 143L257 102L386 141L514 158L643 134L771 104L900 122L900 0L771 0L643 0L514 0L386 0L257 0L129 0L0 0Z" fill="#2d85d2"></path><path d="M0 88L129 93L257 90L386 121L514 109L643 84L771 115L900 113L900 0L771 0L643 0L514 0L386 0L257 0L129 0L0 0Z" fill="#4475b0"></path><path d="M0 83L129 81L257 93L386 96L514 72L643 71L771 97L900 72L900 0L771 0L643 0L514 0L386 0L257 0L129 0L0 0Z" fill="#4b6590"></path><path d="M0 46L129 46L257 42L386 74L514 62L643 54L771 50L900 62L900 0L771 0L643 0L514 0L386 0L257 0L129 0L0 0Z" fill="#4b5771"></path><path d="M0 47L129 35L257 21L386 29L514 49L643 34L771 18L900 37L900 0L771 0L643 0L514 0L386 0L257 0L129 0L0 0Z" fill="#464953"></path></svg>