<svg id="visual" viewBox="0 0 900 250" width="900" height="250" xmlns="http://www.w3.org/2000/svg" xmlns:xlink="http://www.w3.org/1999/xlink" version="1.1"><path d="M0 71L82 71L82 46L164 46L164 69L245 69L245 96L327 96L327 49L409 49L409 104L491 104L491 66L573 66L573 124L655 124L655 74L736 74L736 84L818 84L818 104L900 104L900 86L900 0L900 0L818 0L818 0L736 0L736 0L655 0L655 0L573 0L573 0L491 0L491 0L409 0L409 0L327 0L327 0L245 0L245 0L164 0L164 0L82 0L82 0L0 0Z" fill="#2d85d2"></path><path d="M0 114L82 114L82 91L164 91L164 94L245 94L245 121L327 121L327 81L409 81L409 136L491 136L491 131L573 131L573 151L655 151L655 129L736 129L736 146L818 146L818 139L900 139L900 121L900 84L900 102L818 102L818 82L736 82L736 72L655 72L655 122L573 122L573 64L491 64L491 102L409 102L409 47L327 47L327 94L245 94L245 67L164 67L164 44L82 44L82 69L0 69Z" fill="#476fa6"></path><path d="M0 136L82 136L82 151L164 151L164 136L245 136L245 161L327 161L327 124L409 124L409 196L491 196L491 179L573 179L573 181L655 181L655 184L736 184L736 174L818 174L818 186L900 186L900 159L900 119L900 137L818 137L818 144L736 144L736 127L655 127L655 149L573 149L573 129L491 129L491 134L409 134L409 79L327 79L327 119L245 119L245 92L164 92L164 89L82 89L82 112L0 112Z" fill="#4c5b7b"></path><path d="M0 251L82 251L82 251L164 251L164 251L245 251L245 251L327 251L327 251L409 251L409 251L491 251L491 251L573 251L573 251L655 251L655 251L736 251L736 251L818 251L818 251L900 251L900 251L900 157L900 184L818 184L818 172L736 172L736 182L655 182L655 179L573 179L573 177L491 177L491 194L409 194L409 122L327 122L327 159L245 159L245 134L164 134L164 149L82 149L82 134L0 134Z" fill="#464953"></path></svg>